<svg xmlns="http://www.w3.org/2000/svg" width="720" height="480" viewBox="0 0 720 480">
<title>Measured Speedup</title>
<line x1="60" y1="420" x2="660" y2="420" stroke="#333" stroke-width="1.5"/>
<line x1="60" y1="60" x2="60" y2="420" stroke="#333" stroke-width="1.5"/>
<line x1="60" y1="420.0" x2="660" y2="420.0" stroke="#ccc" stroke-width="0.5" />
<text x="50" y="424.0" text-anchor="end" font-size="12" fill="#333">0.777</text>
<line x1="60" y1="348.0" x2="660" y2="348.0" stroke="#ccc" stroke-width="0.5" />
<text x="50" y="352.0" text-anchor="end" font-size="12" fill="#333">1.138</text>
<line x1="60" y1="276.0" x2="660" y2="276.0" stroke="#ccc" stroke-width="0.5" />
<text x="50" y="280.0" text-anchor="end" font-size="12" fill="#333">1.499</text>
<line x1="60" y1="204.0" x2="660" y2="204.0" stroke="#ccc" stroke-width="0.5" />
<text x="50" y="208.0" text-anchor="end" font-size="12" fill="#333">1.860</text>
<line x1="60" y1="132.00000000000006" x2="660" y2="132.00000000000006" stroke="#ccc" stroke-width="0.5" />
<text x="50" y="136.00000000000006" text-anchor="end" font-size="12" fill="#333">2.221</text>
<line x1="60" y1="60.0" x2="660" y2="60.0" stroke="#ccc" stroke-width="0.5" />
<text x="50" y="64.0" text-anchor="end" font-size="12" fill="#333">2.582</text>
<line x1="60.0" y1="60" x2="60.0" y2="420" stroke="#eee" stroke-width="0.5" />
<text x="60.0" y="440" text-anchor="middle" font-size="12" fill="#333">1</text>
<line x1="145.71428571428572" y1="60" x2="145.71428571428572" y2="420" stroke="#eee" stroke-width="0.5" />
<text x="145.71428571428572" y="440" text-anchor="middle" font-size="12" fill="#333">2</text>
<line x1="231.42857142857142" y1="60" x2="231.42857142857142" y2="420" stroke="#eee" stroke-width="0.5" />
<text x="231.42857142857142" y="440" text-anchor="middle" font-size="12" fill="#333">3</text>
<line x1="317.1428571428571" y1="60" x2="317.1428571428571" y2="420" stroke="#eee" stroke-width="0.5" />
<text x="317.1428571428571" y="440" text-anchor="middle" font-size="12" fill="#333">4</text>
<line x1="402.85714285714283" y1="60" x2="402.85714285714283" y2="420" stroke="#eee" stroke-width="0.5" />
<text x="402.85714285714283" y="440" text-anchor="middle" font-size="12" fill="#333">5</text>
<line x1="488.57142857142856" y1="60" x2="488.57142857142856" y2="420" stroke="#eee" stroke-width="0.5" />
<text x="488.57142857142856" y="440" text-anchor="middle" font-size="12" fill="#333">6</text>
<line x1="574.2857142857142" y1="60" x2="574.2857142857142" y2="420" stroke="#eee" stroke-width="0.5" />
<text x="574.2857142857142" y="440" text-anchor="middle" font-size="12" fill="#333">7</text>
<line x1="660.0" y1="60" x2="660.0" y2="420" stroke="#eee" stroke-width="0.5" />
<text x="660.0" y="440" text-anchor="middle" font-size="12" fill="#333">8</text>
<text x="360.0" y="470" text-anchor="middle" font-size="14" fill="#111">Threads</text>
<text x="15" y="240.0" transform="rotate(-90 15 240.0)" text-anchor="middle" font-size="14" fill="#111">Speedup (T1/Tn)</text>
<text x="360.0" y="30" text-anchor="middle" font-size="16" fill="#111" font-weight="bold">Measured Speedup</text>
<polyline fill="none" stroke="#1f77b4" stroke-width="2.5" points="60.00,375.58 145.71,420.00 231.43,373.44 317.14,380.43 402.86,386.32 488.57,404.75 574.29,362.85 660.00,373.50"/>
<circle cx="60.00" cy="375.58" r="4" fill="#1f77b4"/>
<circle cx="145.71" cy="420.00" r="4" fill="#1f77b4"/>
<circle cx="231.43" cy="373.44" r="4" fill="#1f77b4"/>
<circle cx="317.14" cy="380.43" r="4" fill="#1f77b4"/>
<circle cx="402.86" cy="386.32" r="4" fill="#1f77b4"/>
<circle cx="488.57" cy="404.75" r="4" fill="#1f77b4"/>
<circle cx="574.29" cy="362.85" r="4" fill="#1f77b4"/>
<circle cx="660.00" cy="373.50" r="4" fill="#1f77b4"/>
<polyline fill="none" stroke="#ff7f0e" stroke-width="2.5" points="60.00,375.58 145.71,285.63 231.43,216.69 317.14,139.56 402.86,106.83 488.57,180.13 574.29,218.03 660.00,146.04"/>
<circle cx="60.00" cy="375.58" r="4" fill="#ff7f0e"/>
<circle cx="145.71" cy="285.63" r="4" fill="#ff7f0e"/>
<circle cx="231.43" cy="216.69" r="4" fill="#ff7f0e"/>
<circle cx="317.14" cy="139.56" r="4" fill="#ff7f0e"/>
<circle cx="402.86" cy="106.83" r="4" fill="#ff7f0e"/>
<circle cx="488.57" cy="180.13" r="4" fill="#ff7f0e"/>
<circle cx="574.29" cy="218.03" r="4" fill="#ff7f0e"/>
<circle cx="660.00" cy="146.04" r="4" fill="#ff7f0e"/>
<polyline fill="none" stroke="#2ca02c" stroke-width="2.5" points="60.00,375.58 145.71,334.06 231.43,343.86 317.14,310.57 402.86,292.24 488.57,287.34 574.29,344.99 660.00,344.75"/>
<circle cx="60.00" cy="375.58" r="4" fill="#2ca02c"/>
<circle cx="145.71" cy="334.06" r="4" fill="#2ca02c"/>
<circle cx="231.43" cy="343.86" r="4" fill="#2ca02c"/>
<circle cx="317.14" cy="310.57" r="4" fill="#2ca02c"/>
<circle cx="402.86" cy="292.24" r="4" fill="#2ca02c"/>
<circle cx="488.57" cy="287.34" r="4" fill="#2ca02c"/>
<circle cx="574.29" cy="344.99" r="4" fill="#2ca02c"/>
<circle cx="660.00" cy="344.75" r="4" fill="#2ca02c"/>
<rect x="670" y="60" width="12" height="12" fill="#1f77b4"/>
<text x="688" y="71" font-size="12" fill="#333">600851475143</text>
<rect x="670" y="80" width="12" height="12" fill="#ff7f0e"/>
<text x="688" y="91" font-size="12" fill="#333">9999999967</text>
<rect x="670" y="100" width="12" height="12" fill="#2ca02c"/>
<text x="688" y="111" font-size="12" fill="#333">899809363</text>
</svg>